<?xml version="1.0" standalone="no"?>
<!DOCTYPE svg PUBLIC "-//W3C//DTD SVG 20010904//EN"
 "http://www.w3.org/TR/2001/REC-SVG-20010904/DTD/svg10.dtd">
<svg version="1.0" xmlns="http://www.w3.org/2000/svg"
 width="458.000000pt" height="544.000000pt" viewBox="0 0 458.000000 544.000000"
 preserveAspectRatio="xMidYMid meet">
<metadata>
Created by potrace 1.16, written by Peter Selinger 2001-2019
</metadata>
<g transform="translate(0.000000,544.000000) scale(0.100000,-0.100000)"
fill="rgba(26,101,80,0.732)" stroke="none">
<path d="M1190 5107 c0 -170 -37 -270 -138 -372 -101 -102 -230 -152 -362
-142 -86 7 -152 33 -299 117 -67 39 -124 70 -127 70 -2 0 -3 -595 -1 -1322 3
-1304 3 -1324 24 -1418 79 -356 275 -695 583 -1014 318 -328 757 -639 1225
-868 88 -43 167 -78 176 -78 23 0 252 110 409 197 173 97 505 317 640 426 224
181 434 388 565 557 182 236 317 515 377 778 l22 97 3 1327 4 1326 -138 -79
c-178 -102 -213 -114 -333 -113 -115 1 -181 23 -273 92 -127 96 -187 228 -187
413 l0 109 -1085 0 -1085 0 0 -103z m1903 -285 c100 -318 398 -534 737 -535
52 0 110 3 128 7 l32 8 0 -974 c0 -587 -4 -1017 -10 -1083 -34 -366 -216 -703
-566 -1047 -202 -198 -324 -295 -594 -472 -196 -129 -244 -158 -409 -244
l-134 -70 -131 65 c-347 174 -761 468 -1016 723 -299 297 -469 581 -543 905
-20 87 -21 121 -24 1143 l-4 1053 48 -7 c161 -26 354 11 500 96 173 100 330
309 368 488 l7 32 791 0 792 0 28 -88z"/>
<path d="M2144 4710 c64 -383 71 -638 22 -853 -34 -147 -127 -357 -158 -357
-7 0 -44 33 -83 73 -74 76 -139 185 -186 316 l-23 64 -48 -54 c-110 -122 -202
-284 -243 -425 -31 -106 -34 -260 -9 -363 18 -72 71 -195 104 -240 11 -16 20
-32 20 -36 0 -15 -57 8 -109 43 -86 58 -140 139 -186 277 -14 41 -130 -228
-175 -405 -61 -239 -64 -477 -9 -692 37 -149 127 -319 221 -421 l53 -58 44 55
c72 92 184 166 311 207 l55 18 -60 0 c-104 1 -215 -37 -296 -100 -20 -16 -40
-29 -43 -29 -23 0 35 173 84 249 72 111 188 206 296 241 59 20 25 23 -48 5
-65 -17 -175 -72 -198 -100 -7 -8 -16 -15 -21 -15 -26 0 48 178 110 267 47 65
153 174 216 221 l30 22 -40 -18 c-64 -29 -101 -50 -114 -66 -8 -9 -17 -16 -22
-16 -19 0 127 227 231 360 125 158 150 247 116 404 -10 42 -14 81 -11 86 4 6
52 -33 113 -92 144 -139 250 -195 444 -233 153 -30 269 -74 320 -123 15 -14
39 -55 53 -92 28 -73 35 -79 130 -105 167 -47 260 -149 240 -265 -4 -21 -20
-66 -37 -101 l-30 -64 -13 44 c-28 92 -95 126 -250 126 -121 -1 -202 -22 -285
-76 -46 -29 -63 -48 -83 -91 -113 -239 -7 -633 246 -912 l53 -60 86 56 c107
70 289 245 357 342 159 231 227 494 201 781 -25 268 -124 532 -291 775 -55 80
-213 260 -227 260 -4 -1 -18 -24 -31 -52 -13 -28 -52 -80 -86 -117 -62 -65
-173 -141 -207 -141 -16 0 -15 3 3 45 80 181 79 430 -2 663 -45 128 -118 273
-196 392 -77 116 -225 300 -298 370 l-47 45 6 -35z"/>
<path d="M2609 2843 c12 -23 60 -68 88 -82 29 -15 76 -14 91 1 7 7 12 24 12
39 0 44 -32 59 -123 59 -71 0 -77 -2 -68 -17z"/>
</g>
</svg>
